<?xml version="1.0" encoding="UTF-8"?>
<svg width="320px" height="44px" viewBox="0 0 320 44" version="1.1" xmlns="http://www.w3.org/2000/svg" xmlns:xlink="http://www.w3.org/1999/xlink">
    <title>编组</title>
    <g id="页面-1" stroke="none" stroke-width="1" fill="none" fill-rule="evenodd">
        <g id="编组" transform="translate(-3.000000, 1.000000)">
            <g id="Delta-Prox" transform="translate(56.920000, 0.580000)" fill-rule="nonzero" stroke="#FFFFFF" stroke-width="1.5">
                <path d="M11.52,1.47 C14.560858,1.47 17.3443963,1.86272305 19.871383,2.64341814 C22.4395,3.43682013 24.6404547,4.65046681 26.4774806,6.2787398 C28.3210298,7.91279478 29.7481252,9.95381414 30.7538765,12.4053327 C31.7472441,14.8266662 32.25,17.6506702 32.25,20.88 C32.25,24.2224781 31.7699295,27.1405469 30.8210492,29.6365146 C29.8579277,32.169943 28.4832696,34.2715655 26.7040235,35.94615 C24.9257646,37.6198054 22.7827303,38.8672279 20.2718146,39.6832756 C17.8020959,40.4859341 15.065135,40.89 12.06,40.89 C10.7651577,40.89 9.2477528,40.8295733 7.5078013,40.7081813 C5.72346724,40.5836929 4.06389339,40.2713431 2.52748455,39.7730474 C1.4507766,39.421947 0.655523204,38.9161021 0.119067577,38.2863498 C-0.45392279,37.613709 -0.75,36.7940718 -0.75,35.82 L-0.75,5.76 C-0.75,4.84388889 -0.467075641,4.14641547 0.0396699141,3.63966991 C0.496567707,3.18277212 1.12751799,2.8220328 1.94734175,2.58067132 C3.39344775,2.12726306 4.96293118,1.82726589 6.65620763,1.6827179 C8.31800335,1.54085729 9.9392695,1.47 11.52,1.47 Z M11.7,8.25 C9.93282041,8.25 8.42267762,8.34798179 7.17,8.5475582 L7.17,33.7787262 C7.77632519,33.8977152 8.43165442,33.9782888 9.13583255,34.0214017 C10.1007093,34.0804758 11.0754321,34.11 12.06,34.11 C15.9699846,34.11 18.9795856,33.0422393 21.0535759,30.8362679 C23.1450062,28.6117466 24.15,25.2999575 24.15,20.94 C24.15,18.6889566 23.8325408,16.7507888 23.1836425,15.128543 C22.5497485,13.543808 21.6774653,12.2447406 20.5582765,11.2374706 C19.4355164,10.2269865 18.1250072,9.47974263 16.6281854,8.99327555 C15.1000659,8.49663671 13.4571516,8.25 11.7,8.25 Z" id="形状" fill="#000000"></path>
                <path d="M50.94,9.75 C52.9606357,9.75 54.8015152,10.079475 56.4639658,10.731829 C58.1400981,11.3895518 59.5816055,12.3035414 60.7907769,13.4702858 C62.0052975,14.6421916 62.9438579,16.0372186 63.604451,17.6567371 C64.2597166,19.2631949 64.59,21.0172527 64.59,22.92 C64.59,24.1860754 64.237612,25.0777533 63.638929,25.6514912 C63.0668622,26.1997219 62.2412282,26.590534 61.1373869,26.7808341 L44.4562434,29.1801767 C45.0060356,30.8576288 45.9102549,32.1396658 47.1913134,33.0095203 C48.7014055,34.0348915 50.6350707,34.53 52.98,34.53 C54.5646788,34.53 56.0179934,34.2875387 57.3388601,33.796931 C58.6648528,33.3044195 59.7281894,32.778187 60.5240714,32.2096999 C61.0311565,32.0060082 61.181221,32.0825987 61.3321042,32.1688176 C62.013303,32.5580741 62.5169458,33.0325914 62.8567925,33.5787736 C63.2086005,34.1441793 63.39,34.7901569 63.39,35.52 C63.39,36.3765881 63.0761745,37.1770174 62.4184271,37.9106588 C61.838749,38.5572227 61.0515016,39.1209465 60.0471641,39.5896374 C59.0982365,40.0324702 57.9813109,40.3828051 56.6947664,40.6358958 C55.4298262,40.8847365 54.0716288,41.01 52.62,41.01 C50.2119085,41.01 48.0224479,40.6749669 46.0505858,40.0107608 C44.0432099,39.334592 42.3225754,38.3182431 40.8859765,36.96615 C39.4477815,35.6125548 38.3348323,33.9432186 37.552117,31.9546986 C36.7810349,29.9957333 36.39,27.7249357 36.39,25.14 C36.39,22.6346187 36.7712086,20.4334279 37.5225904,18.5341017 C38.2838877,16.6097114 39.3232495,15.0049842 40.6339989,13.715376 C41.9474337,12.4231256 43.4933671,11.4370909 45.2730035,10.7591342 C47.0360691,10.0874902 48.9248563,9.75 50.94,9.75 Z M50.94,16.11 C48.9560871,16.11 47.3019343,16.7706464 45.9839254,18.1067102 C44.802654,19.3041634 44.1366237,20.9650671 43.9429317,23.0682088 L57.0596246,21.2020127 C56.8236651,19.877341 56.2617131,18.7284935 55.3682263,17.7579821 C54.3367519,16.6375875 52.8497977,16.11 50.94,16.11 Z" id="形状" fill="#000000"></path>
                <path d="M73.56,-0.75 C74.9406086,-0.75 75.9427906,-0.448762441 76.6033662,0.0702612459 C77.3121291,0.627146404 77.73,1.53817579 77.73,2.88 L77.73,39.7942712 C77.5554449,39.8768234 77.3931842,39.9460563 77.2433426,40.0022469 C76.8929986,40.1336259 76.4446222,40.2559285 75.8970871,40.3654355 C75.3525153,40.4743499 74.7535714,40.53 74.1,40.53 C72.7193914,40.53 71.7172094,40.2287624 71.0566338,39.7097388 C70.3478709,39.1528536 69.93,38.2418242 69.93,36.9 L69.93,-0.0739588348 C70.1426258,-0.142582322 70.3239535,-0.198284206 70.4739592,-0.241142961 C70.7627003,-0.323640426 71.1751155,-0.427045738 71.7113554,-0.550793397 C72.2835549,-0.682839442 72.8996783,-0.75 73.56,-0.75 Z" id="路径" fill="#000000"></path>
                <path d="M88.56,2.37 C89.949579,2.37 90.9434302,2.67682785 91.5837547,3.19857376 C92.2651827,3.75381139 92.67,4.66216377 92.67,6 L92.67,11.19 L101.564607,11.19 C101.850558,11.4482243 102.137403,11.9553948 102.384694,12.7325973 C102.547764,13.2451025 102.63,13.7808294 102.63,14.34 C102.63,15.4300463 102.357047,16.2254745 101.893508,16.7641814 C101.397173,17.3410034 100.667126,17.67 99.66,17.67 L92.67,17.67 L92.67,31.2 C92.67,32.3265672 92.943462,33.1693666 93.6159286,33.6496999 C94.3524879,34.1758137 95.3946721,34.41 96.72,34.41 C97.3400564,34.41 97.996288,34.317021 98.68913,34.1346941 C99.3933373,33.9493764 100.005601,33.7286742 100.52459,33.4691796 C100.681421,33.3907642 100.840528,33.3034095 101.001995,33.2072203 C101.151439,33.3487101 101.29223,33.4950334 101.424433,33.6461215 C101.738847,34.0054522 102.0201,34.4093566 102.267162,34.8585609 C102.542382,35.3589607 102.69,35.9575393 102.69,36.66 C102.69,37.9403628 102.074325,39.0248892 100.754966,39.8712706 C99.6060915,40.6082844 97.8694932,41.01 95.52,41.01 C92.3249301,41.01 89.7909063,40.2734927 87.8989235,38.8491911 C85.9580547,37.3880876 84.93,35.0015224 84.93,31.62 L84.93,3.04604117 C85.1426258,2.97741768 85.3239535,2.92171579 85.4739592,2.87885704 C85.7627003,2.79635957 86.1751155,2.69295426 86.7113554,2.5692066 C87.2835549,2.43716056 87.8996783,2.37 88.56,2.37 Z" id="路径" fill="#000000"></path>
                <path d="M119.04,9.75 C122.952556,9.75 126.054536,10.6249403 128.364712,12.3260702 C130.738391,14.0739612 131.97,16.8078309 131.97,20.58 L131.97,34.56 C131.97,35.6979603 131.679399,36.559156 131.164279,37.1723941 C130.698634,37.7267328 130.069869,38.2518174 129.271088,38.7399614 C128.167813,39.3767425 126.768869,39.9243884 125.054346,40.3843821 C123.358429,40.8393843 121.393954,41.07 119.16,41.07 C115.090015,41.07 111.923915,40.2469476 109.64104,38.6552184 C107.261461,36.9960618 106.05,34.5590521 106.05,31.32 C106.05,28.417421 107.010808,26.2148026 108.87322,24.6810523 C110.666819,23.2039703 113.243007,22.2719586 116.624841,21.9337755 L124.29,21.161745 L124.29,20.52 C124.29,19.0596774 123.856924,17.966018 122.899181,17.2939175 C121.862144,16.5661723 120.408684,16.23 118.56,16.23 C117.034074,16.23 115.565261,16.4392573 114.153728,16.8589023 C112.715854,17.2863782 111.433082,17.7713348 110.306062,18.3154137 C109.044368,17.8519633 108.646401,17.3972573 108.319351,16.8599602 C107.967986,16.2827173 107.79,15.6431702 107.79,14.94 C107.79,14.0699934 108.023727,13.3615201 108.456536,12.8014144 C108.857754,12.2821918 109.472575,11.8199682 110.322738,11.4401242 C111.497489,10.8551921 112.838303,10.4242905 114.346738,10.1519341 C115.828821,9.88433584 117.393208,9.75 119.04,9.75 Z M124.29,27.2894975 L118.575306,27.8662098 C116.897101,28.0486457 115.623465,28.4029485 114.77914,28.9719498 C114.05991,29.4566485 113.73,30.2108516 113.73,31.2 C113.73,32.2585517 114.12124,33.0914979 114.926132,33.6871186 C115.830805,34.3565763 117.253873,34.65 119.16,34.65 C120.485076,34.65 121.640424,34.5208717 122.62502,34.2557882 C123.335566,34.0644872 123.893122,33.8713551 124.29,33.6625399 L124.29,27.2894975 Z" id="形状" fill="#000000"></path>
                <path d="M163.5,1.47 C168.937443,1.47 172.938226,2.66258945 175.545471,4.95696486 C178.202919,7.29551937 179.55,10.4572565 179.55,14.46 C179.55,18.4567138 178.206984,21.647118 175.552952,24.0463627 C172.940585,26.4079419 169.055916,27.63 163.86,27.63 L159.27,27.63 L159.27,39.7926947 C159.094181,39.8767892 158.931913,39.946533 158.783343,40.0022469 C158.432322,40.1338796 157.9722,40.256781 157.401636,40.3665048 C156.839308,40.4746448 156.212185,40.53 155.52,40.53 C154.036821,40.53 153.002013,40.204723 152.36365,39.6609324 C151.690185,39.0872403 151.29,38.1516 151.29,36.78 L151.29,5.82 C151.29,4.90388889 151.572924,4.20641547 152.07967,3.69966991 C152.533387,3.24595238 153.158743,2.88705936 153.970249,2.64572808 C155.256656,2.19175764 156.789601,1.87889215 158.570532,1.71322409 C160.315118,1.55093709 161.95828,1.47 163.5,1.47 Z M163.62,8.25 C162.722379,8.25 161.834513,8.28900041 160.956405,8.36705448 C160.329575,8.42277272 159.747432,8.48830777 159.21,8.56382765 L159.21,20.91 L163.44,20.91 C166.000415,20.91 168.026475,20.379116 169.496379,19.2627327 C170.901623,18.1954588 171.57,16.5818473 171.57,14.46 C171.57,12.3506789 170.950556,10.7734838 169.621283,9.78096017 C168.225636,8.7388769 166.21648,8.25 163.62,8.25 Z" id="形状" fill="#A42D2D"></path>
                <path d="M197.22,9.75 C199.150993,9.75 200.588172,10.0511264 201.550507,10.5979076 C202.11649,10.919489 202.534584,11.3267787 202.816894,11.807989 C203.100507,12.2914207 203.25,12.8539274 203.25,13.5 C203.25,14.0751437 203.15251,14.6139309 202.960866,15.1169965 C202.781959,15.586626 202.579593,15.999749 202.355999,16.3574992 C202.264413,16.5040362 202.162916,16.6514429 202.051344,16.7995557 C201.185714,16.6179958 200.701667,16.5408596 200.120877,16.4634209 C199.551853,16.387551 198.944876,16.35 198.3,16.35 C196.768514,16.35 195.370697,16.5108157 194.107076,16.8362938 C193.035886,17.1122063 192.10298,17.4485966 191.31,17.8493498 L191.31,39.76006 C191.143789,39.8545269 190.992165,39.9307621 190.855439,39.9893588 C190.539745,40.1246566 190.101177,40.2526175 189.537087,40.3654355 C188.992515,40.4743499 188.393571,40.53 187.74,40.53 C186.359391,40.53 185.357209,40.2287624 184.696634,39.7097388 C183.987871,39.1528536 183.57,38.2418242 183.57,36.9 L183.57,17.22 C183.57,16.0482377 183.822848,15.1071452 184.289778,14.3834048 C184.738554,13.6878007 185.448256,13.016673 186.444478,12.3827699 C187.657667,11.6297561 189.203655,10.9974832 191.086753,10.4953238 C192.945313,9.99970788 194.98955,9.75 197.22,9.75 Z" id="路径" fill="#A42D2D"></path>
                <path d="M219.72,9.75 C221.941383,9.75 223.973357,10.1197602 225.817177,10.8530977 C227.681565,11.5946157 229.269345,12.6554313 230.582706,14.0323418 C231.890541,15.4034593 232.905241,17.0476115 233.622564,18.9675037 C234.331588,20.8651855 234.69,23.0021756 234.69,25.38 C234.69,27.7563796 234.332103,29.9025803 233.623496,31.8199876 C232.905753,33.7621154 231.900318,35.4067213 230.612902,36.7574532 C229.320129,38.113805 227.742507,39.1650098 225.877177,39.9069023 C224.034213,40.6398996 221.982311,41.01 219.72,41.01 C217.457689,41.01 215.405787,40.6398996 213.562823,39.9069023 C211.697493,39.1650098 210.119871,38.113805 208.827098,36.7574532 C207.539682,35.4067213 206.534247,33.7621154 205.816504,31.8199876 C205.107897,29.9025803 204.75,27.7563796 204.75,25.38 C204.75,23.0036204 205.107897,20.8574197 205.816504,18.9400124 C206.534876,16.9961832 207.551646,15.3500755 208.86132,13.9981536 C210.173592,12.6435497 211.759955,11.5940112 213.622823,10.8530977 C215.466643,10.1197602 217.498617,9.75 219.72,9.75 Z M219.72,16.29 C217.569324,16.29 215.858805,17.0489755 214.601672,18.5934535 C213.292971,20.2012855 212.67,22.4723522 212.67,25.38 C212.67,28.288761 213.273783,30.5516428 214.545652,32.1414787 C215.767373,33.6686301 217.499849,34.41 219.72,34.41 C221.940151,34.41 223.672627,33.6686301 224.894348,32.1414787 C226.166217,30.5516428 226.77,28.288761 226.77,25.38 C226.77,22.5065065 226.153422,20.2438856 224.862377,18.616046 C223.623899,17.0544866 221.904216,16.29 219.72,16.29 Z" id="形状" fill="#A42D2D"></path>
                <path d="M259.8,10.11 C261.128477,10.11 262.158291,10.4447588 262.912944,11.0579145 C263.741093,11.7307854 264.15,12.5864234 264.15,13.62 C264.15,14.3462953 263.989936,15.0111617 263.675413,15.6160146 C263.399425,16.1467597 262.925225,16.8390545 262.240468,17.6949283 C261.517658,18.5783631 260.781463,19.4617984 260.029747,20.347738 L258.897617,21.6702149 C257.895059,22.8310718 256.915791,23.9919273 255.959817,25.1527839 L264.775762,36.4959673 C264.677649,37.8054296 264.216626,38.8157295 263.431739,39.5482915 C262.697071,40.2339817 261.770183,40.59 260.64,40.59 C259.548207,40.59 258.67805,40.2728438 258.011727,39.680557 C257.447204,39.1787588 256.80803,38.4901475 256.097066,37.6118987 C255.150187,36.2966116 254.199359,34.9654529 253.218505,33.5842504 C252.446647,32.4973487 251.693375,31.429032 250.958489,30.3794205 C249.846469,31.8647604 248.734448,33.3572017 247.622428,34.8567444 C246.228354,36.736632 244.87907,38.6277158 243.574581,40.53 L242.22,40.53 C240.753532,40.53 239.675143,40.1844712 238.948041,39.5746437 C238.142479,38.899011 237.75,38.064381 237.75,37.08 C237.75,36.437262 237.898421,35.8316369 238.195061,35.2630755 C238.451442,34.7716788 238.936937,34.09557 239.662302,33.2412724 C240.823965,31.7595516 242.005584,30.3077637 243.207154,28.8859051 C244.273831,27.623671 245.324655,26.3535106 246.359279,25.0751043 C244.972859,23.3263705 243.628531,21.6449833 242.326295,20.030944 C240.908061,18.273133 239.439888,16.4753726 237.921779,14.6376611 C237.996501,12.8532318 238.459725,11.9329062 239.130759,11.2387334 C239.853571,10.4909961 240.76124,10.11 241.86,10.11 C242.923404,10.11 243.743934,10.4145136 244.346793,10.9671344 C244.852586,11.4307771 245.401852,12.040765 245.992014,12.7995445 C246.925282,14.0571027 247.878344,15.3713114 248.861495,16.7557496 C249.649804,17.8658164 250.457626,18.9693779 251.28517,20.0662115 C252.428481,18.584707 253.528238,17.1540164 254.58444,15.7741396 C255.817201,14.1635973 257.089676,12.4038932 258.401969,10.4951034 C259.110628,10.1370216 259.419394,10.11 259.8,10.11 Z" id="路径" fill="#A42D2D"></path>
            </g>
            <path d="M20.8846154,13.0814566 C21.5696997,12.7960048 22.3636803,12.7719039 23.1041744,13.0768132 C23.8192588,13.3712597 24.38712,13.9391209 24.6815665,14.6542053 L36.7222337,43.8958256 C37.027143,44.6363197 37.0030421,45.4303003 36.7175903,46.1153846 C36.4321384,46.800469 35.8853358,47.3766571 35.1448416,47.6815665 C34.7945813,47.8257913 34.4194588,47.9 34.0406672,47.9 L9.95933282,47.9 C9.15851993,47.9 8.43351993,47.5754064 7.90872315,47.0506097 C7.38392637,46.5258129 7.05933282,45.8008129 7.05933282,45 C7.05933282,44.6212084 7.1335415,44.2460859 7.27776633,43.8958256 L19.3184335,14.6542053 C19.6233429,13.9137111 20.199531,13.3669084 20.8846154,13.0814566 Z" id="三角形" stroke="#000000" stroke-width="6.2" transform="translate(22.000000, 25.500000) rotate(180.000000) translate(-22.000000, -25.500000) "></path>
            <path d="M19.9181601,11.1353327 C21.2071665,10.6025434 22.6994251,10.5614935 24.0894082,11.1384676 C25.4217736,11.6915249 26.4805171,12.7502684 27.0335744,14.0826338 L39.7470665,44.710592 C40.3240406,46.1005751 40.2829907,47.5928337 39.7502014,48.88184 C39.2174121,50.1708464 38.1928835,51.2566004 36.8029003,51.8335746 C36.1406086,52.1084881 35.4305748,52.25 34.7134921,52.25 L9.28650792,52.25 C7.78153203,52.25 6.41903208,51.639988 5.4327761,50.653732 C4.44652012,49.667476 3.83650811,48.3049761 3.83650811,46.8000002 C3.83650811,46.0829174 3.97802001,45.3728836 4.25293353,44.710592 L16.9664256,14.0826338 C17.5433998,12.6926506 18.6291538,11.668122 19.9181601,11.1353327 Z" id="三角形备份" stroke="#FFFFFF" stroke-width="1.5" transform="translate(22.000000, 26.500000) rotate(180.000000) translate(-22.000000, -26.500000) "></path>
            <path d="M21.9005561,8.29180424 C22.1561825,8.31407931 22.2070956,8.36499237 22.232507,8.42930283 L33.762134,37.6081279 C33.7875037,37.672333 33.7844475,37.7407429 33.7589976,37.7994439 C33.7458731,37.829716 33.7267931,37.857406 33.702585,37.8806058 L10.4703731,37.95 C10.4013375,37.95 10.3388375,37.9220178 10.2935964,37.8767767 C10.2703162,37.8534965 10.2516061,37.8256464 10.2389271,37.7946873 L21.767493,8.42930283 C21.7928627,8.36509779 21.841855,8.31725416 21.9005561,8.29180424 Z" id="三角形备份-2" stroke="#FFFFFF" stroke-width="1.5" transform="translate(22.000000, 22.250000) rotate(180.000000) translate(-22.000000, -22.250000) "></path>
        </g>
    </g>
</svg>