<?xml version="1.0" encoding="UTF-8"?>
<svg width="849px" height="201px" viewBox="0 0 849 201" version="1.1" xmlns="http://www.w3.org/2000/svg" xmlns:xlink="http://www.w3.org/1999/xlink">
    <title>DeltaProx-Logo</title>
        <style>
        text {
            fill: #24292f;
        }
        @media (prefers-color-scheme: dark) {
            text { fill: white; }
        }
    </style>
    <g id="页面-1" stroke="none" stroke-width="1" fill="none" fill-rule="evenodd">
        <g id="编组-4" transform="translate(-15.000000, -70.000000)">
            <path d="M98.0388995,137.923166 C102.035421,136.269626 106.662747,136.140708 110.973599,137.928343 C115.109556,139.643452 118.395865,142.929761 120.110974,147.065719 L176.698837,283.526401 C178.486472,287.837253 178.357554,292.464579 176.704014,296.4611 C175.050474,300.457622 171.872313,303.82334 167.561461,305.610974 C165.509296,306.461972 163.309479,306.9 161.087863,306.9 L47.9121375,306.9 C43.2453314,306.9 39.0203314,305.008403 35.9620329,301.950105 C32.9037344,298.891806 31.0121375,294.666806 31.0121375,290 C31.0121375,287.778384 31.450166,285.578567 32.3011631,283.526401 L88.8890256,147.065719 C90.6766605,142.754867 94.0423779,139.576706 98.0388995,137.923166 Z" id="logo" stroke="#EE4C2C" stroke-width="30.2" transform="translate(104.500000, 196.000000) rotate(180.000000) translate(-104.500000, -196.000000) "></path>
            <text id="-" font-family="ArialRoundedMTBold, Arial Rounded MT Bold" font-size="230" font-weight="normal" fill="#000000">
                <tspan x="209" y="218">-</tspan>
            </text>
            <text id="Prox" font-family="ArialRoundedMTBold, Arial Rounded MT Bold" font-size="270" font-weight="normal" fill="#24292F">
                <tspan x="286" y="267">Prox</tspan>
            </text>
        </g>
    </g>
</svg>